# xmcd CD database file
#
# Track frame offsets:
#	222
#	13227
#	26655
#	40065
#	55277
#	70837
#	86682
#	100627
#	114852
#	132670
#	144352
#	158245
#	170475
#	191402
#	203937
#	222390
#
# Disc length: 3157 seconds
#
# Revision: 0
# Processed by: cddbd v1.5.2PL0 Copyright (c) Steve Scherf et al.
# Submitted via: CDex 1.70beta1
#
DISCID=e10c5310
DTITLE=Ken Colyer's Jazzmen - In The Beginning - The Decca Years Vol 6
DYEAR=1900
DGENRE=Jazz
TTITLE0=Isle Of Capri
TTITLE1=Harlem Rag
TTITLE2=Too Busy
TTITLE3=Goin'Home
TTITLE4=La Harpe Street Blues
TTITLE5=Cataract Rag
TTITLE6=Stockyard Strut
TTITLE7=Early Hours
TTITLE8=Saturday Night Function
TTITLE9=Shimme-Sha-Wabble
TTITLE10=Sing On
TTITLE11=Lord Lord Lord
TTITLE12=Far Away Blues
TTITLE13=Moose March
TTITLE14=Postman's Lament
TTITLE15=Tuxedo Rag
EXTD=
EXTT0=
EXTT1=
EXTT2=
EXTT3=
EXTT4=
EXTT5=
EXTT6=
EXTT7=
EXTT8=
EXTT9=
EXTT10=
EXTT11=
EXTT12=
EXTT13=
EXTT14=
EXTT15=
PLAYORDER=
